# xmcd
# 
# Track frame offsets:
#     150
#     14281
#     31343
#     50323
# 
# Disc length: 835
# 
# Revision: 0
# Processed by: cddbd v1.5.2PL0 Copyright (c) Steve Scherf et al.
# Submitted via: BonkEnc v1.0
# 
DISCID=25034104
DTITLE=S Punk 7 - Demo 2010
DYEAR=0
DGENRE=Punk Rock
TTITLE0=Complete Control
TTITLE1=Holiday
TTITLE2=Making Plans for Nigel
TTITLE3=She's So Modern
EXTD=
EXTT0=
EXTT1=
EXTT2=
EXTT3=
PLAYORDER=
